<mxfile host="Electron" modified="2024-03-13T03:17:19.041Z" agent="Mozilla/5.0 (X11; Linux x86_64) AppleWebKit/537.36 (KHTML, like Gecko) draw.io/24.0.4 Chrome/120.0.6099.109 Electron/28.1.0 Safari/537.36" etag="8BJTL9FS43DQfGnSChsI" version="24.0.4" type="device">
  <diagram id="C5RBs43oDa-KdzZeNtuy" name="Page-1">
    <mxGraphModel dx="3214" dy="1079" grid="1" gridSize="10" guides="1" tooltips="1" connect="1" arrows="1" fold="1" page="1" pageScale="1" pageWidth="1169" pageHeight="827" math="0" shadow="0">
      <root>
        <mxCell id="WIyWlLk6GJQsqaUBKTNV-0" />
        <mxCell id="WIyWlLk6GJQsqaUBKTNV-1" parent="WIyWlLk6GJQsqaUBKTNV-0" />
        <mxCell id="R6oYE3YDxSzCmOTQxmxE-149" style="edgeStyle=orthogonalEdgeStyle;rounded=0;orthogonalLoop=1;jettySize=auto;html=1;exitX=0.5;exitY=1;exitDx=0;exitDy=0;" edge="1" parent="WIyWlLk6GJQsqaUBKTNV-1" source="R6oYE3YDxSzCmOTQxmxE-0" target="R6oYE3YDxSzCmOTQxmxE-1">
          <mxGeometry relative="1" as="geometry" />
        </mxCell>
        <mxCell id="R6oYE3YDxSzCmOTQxmxE-150" style="edgeStyle=orthogonalEdgeStyle;rounded=0;orthogonalLoop=1;jettySize=auto;html=1;exitX=0.5;exitY=1;exitDx=0;exitDy=0;entryX=0.5;entryY=0;entryDx=0;entryDy=0;" edge="1" parent="WIyWlLk6GJQsqaUBKTNV-1" source="R6oYE3YDxSzCmOTQxmxE-0" target="R6oYE3YDxSzCmOTQxmxE-6">
          <mxGeometry relative="1" as="geometry" />
        </mxCell>
        <mxCell id="R6oYE3YDxSzCmOTQxmxE-151" style="edgeStyle=orthogonalEdgeStyle;rounded=0;orthogonalLoop=1;jettySize=auto;html=1;exitX=0.5;exitY=1;exitDx=0;exitDy=0;entryX=0.5;entryY=0;entryDx=0;entryDy=0;" edge="1" parent="WIyWlLk6GJQsqaUBKTNV-1" source="R6oYE3YDxSzCmOTQxmxE-0" target="R6oYE3YDxSzCmOTQxmxE-2">
          <mxGeometry relative="1" as="geometry" />
        </mxCell>
        <mxCell id="R6oYE3YDxSzCmOTQxmxE-152" style="edgeStyle=orthogonalEdgeStyle;rounded=0;orthogonalLoop=1;jettySize=auto;html=1;exitX=0.5;exitY=1;exitDx=0;exitDy=0;entryX=0.5;entryY=0;entryDx=0;entryDy=0;" edge="1" parent="WIyWlLk6GJQsqaUBKTNV-1" source="R6oYE3YDxSzCmOTQxmxE-0" target="R6oYE3YDxSzCmOTQxmxE-3">
          <mxGeometry relative="1" as="geometry" />
        </mxCell>
        <mxCell id="R6oYE3YDxSzCmOTQxmxE-154" style="edgeStyle=orthogonalEdgeStyle;rounded=0;orthogonalLoop=1;jettySize=auto;html=1;exitX=0.5;exitY=1;exitDx=0;exitDy=0;entryX=0.5;entryY=0;entryDx=0;entryDy=0;" edge="1" parent="WIyWlLk6GJQsqaUBKTNV-1" source="R6oYE3YDxSzCmOTQxmxE-0" target="R6oYE3YDxSzCmOTQxmxE-5">
          <mxGeometry relative="1" as="geometry" />
        </mxCell>
        <mxCell id="R6oYE3YDxSzCmOTQxmxE-0" value="&lt;font style=&quot;font-size: 14px;&quot;&gt;Full Stack&lt;/font&gt;" style="rounded=1;whiteSpace=wrap;html=1;fillColor=#1ba1e2;fontColor=#ffffff;strokeColor=#006EAF;" vertex="1" parent="WIyWlLk6GJQsqaUBKTNV-1">
          <mxGeometry x="500" y="30" width="190" height="40" as="geometry" />
        </mxCell>
        <mxCell id="R6oYE3YDxSzCmOTQxmxE-18" style="edgeStyle=orthogonalEdgeStyle;rounded=0;orthogonalLoop=1;jettySize=auto;html=1;exitX=0.25;exitY=1;exitDx=0;exitDy=0;entryX=0;entryY=0.5;entryDx=0;entryDy=0;" edge="1" parent="WIyWlLk6GJQsqaUBKTNV-1" source="R6oYE3YDxSzCmOTQxmxE-1" target="R6oYE3YDxSzCmOTQxmxE-7">
          <mxGeometry relative="1" as="geometry" />
        </mxCell>
        <mxCell id="R6oYE3YDxSzCmOTQxmxE-22" style="edgeStyle=orthogonalEdgeStyle;rounded=0;orthogonalLoop=1;jettySize=auto;html=1;exitX=0.25;exitY=1;exitDx=0;exitDy=0;entryX=0;entryY=0.5;entryDx=0;entryDy=0;" edge="1" parent="WIyWlLk6GJQsqaUBKTNV-1" source="R6oYE3YDxSzCmOTQxmxE-1" target="R6oYE3YDxSzCmOTQxmxE-11">
          <mxGeometry relative="1" as="geometry" />
        </mxCell>
        <mxCell id="R6oYE3YDxSzCmOTQxmxE-23" style="edgeStyle=orthogonalEdgeStyle;rounded=0;orthogonalLoop=1;jettySize=auto;html=1;exitX=0.25;exitY=1;exitDx=0;exitDy=0;entryX=0;entryY=0.5;entryDx=0;entryDy=0;" edge="1" parent="WIyWlLk6GJQsqaUBKTNV-1" source="R6oYE3YDxSzCmOTQxmxE-1" target="R6oYE3YDxSzCmOTQxmxE-15">
          <mxGeometry relative="1" as="geometry" />
        </mxCell>
        <mxCell id="R6oYE3YDxSzCmOTQxmxE-1" value="&lt;font style=&quot;font-size: 14px;&quot;&gt;Front End&lt;/font&gt;" style="rounded=1;whiteSpace=wrap;html=1;fillColor=#d5e8d4;strokeColor=#82b366;gradientColor=#97d077;" vertex="1" parent="WIyWlLk6GJQsqaUBKTNV-1">
          <mxGeometry x="-150" y="120" width="140" height="40" as="geometry" />
        </mxCell>
        <mxCell id="R6oYE3YDxSzCmOTQxmxE-39" style="edgeStyle=orthogonalEdgeStyle;rounded=0;orthogonalLoop=1;jettySize=auto;html=1;exitX=0.25;exitY=1;exitDx=0;exitDy=0;entryX=0;entryY=0.5;entryDx=0;entryDy=0;" edge="1" parent="WIyWlLk6GJQsqaUBKTNV-1" source="R6oYE3YDxSzCmOTQxmxE-2" target="R6oYE3YDxSzCmOTQxmxE-29">
          <mxGeometry relative="1" as="geometry" />
        </mxCell>
        <mxCell id="R6oYE3YDxSzCmOTQxmxE-40" style="edgeStyle=orthogonalEdgeStyle;rounded=0;orthogonalLoop=1;jettySize=auto;html=1;exitX=0.25;exitY=1;exitDx=0;exitDy=0;entryX=0;entryY=0.5;entryDx=0;entryDy=0;" edge="1" parent="WIyWlLk6GJQsqaUBKTNV-1" source="R6oYE3YDxSzCmOTQxmxE-2" target="R6oYE3YDxSzCmOTQxmxE-33">
          <mxGeometry relative="1" as="geometry" />
        </mxCell>
        <mxCell id="R6oYE3YDxSzCmOTQxmxE-41" style="edgeStyle=orthogonalEdgeStyle;rounded=0;orthogonalLoop=1;jettySize=auto;html=1;exitX=0.25;exitY=1;exitDx=0;exitDy=0;entryX=0;entryY=0.5;entryDx=0;entryDy=0;" edge="1" parent="WIyWlLk6GJQsqaUBKTNV-1" source="R6oYE3YDxSzCmOTQxmxE-2" target="R6oYE3YDxSzCmOTQxmxE-32">
          <mxGeometry relative="1" as="geometry" />
        </mxCell>
        <mxCell id="R6oYE3YDxSzCmOTQxmxE-42" style="edgeStyle=orthogonalEdgeStyle;rounded=0;orthogonalLoop=1;jettySize=auto;html=1;exitX=0.25;exitY=1;exitDx=0;exitDy=0;entryX=0;entryY=0.5;entryDx=0;entryDy=0;" edge="1" parent="WIyWlLk6GJQsqaUBKTNV-1" source="R6oYE3YDxSzCmOTQxmxE-2" target="R6oYE3YDxSzCmOTQxmxE-31">
          <mxGeometry relative="1" as="geometry" />
        </mxCell>
        <mxCell id="R6oYE3YDxSzCmOTQxmxE-43" style="edgeStyle=orthogonalEdgeStyle;rounded=0;orthogonalLoop=1;jettySize=auto;html=1;exitX=0.25;exitY=1;exitDx=0;exitDy=0;entryX=0;entryY=0.5;entryDx=0;entryDy=0;" edge="1" parent="WIyWlLk6GJQsqaUBKTNV-1" source="R6oYE3YDxSzCmOTQxmxE-2" target="R6oYE3YDxSzCmOTQxmxE-36">
          <mxGeometry relative="1" as="geometry" />
        </mxCell>
        <mxCell id="R6oYE3YDxSzCmOTQxmxE-145" style="edgeStyle=orthogonalEdgeStyle;rounded=0;orthogonalLoop=1;jettySize=auto;html=1;exitX=0.25;exitY=1;exitDx=0;exitDy=0;entryX=0;entryY=0.5;entryDx=0;entryDy=0;" edge="1" parent="WIyWlLk6GJQsqaUBKTNV-1" source="R6oYE3YDxSzCmOTQxmxE-2" target="R6oYE3YDxSzCmOTQxmxE-143">
          <mxGeometry relative="1" as="geometry" />
        </mxCell>
        <mxCell id="R6oYE3YDxSzCmOTQxmxE-2" value="&lt;font style=&quot;font-size: 14px;&quot;&gt;Back End&lt;/font&gt;" style="rounded=1;whiteSpace=wrap;html=1;fillColor=#d5e8d4;strokeColor=#82b366;gradientColor=#97d077;" vertex="1" parent="WIyWlLk6GJQsqaUBKTNV-1">
          <mxGeometry x="120" y="120" width="140" height="40" as="geometry" />
        </mxCell>
        <mxCell id="R6oYE3YDxSzCmOTQxmxE-50" style="edgeStyle=orthogonalEdgeStyle;rounded=0;orthogonalLoop=1;jettySize=auto;html=1;exitX=0.25;exitY=1;exitDx=0;exitDy=0;entryX=0;entryY=0.5;entryDx=0;entryDy=0;" edge="1" parent="WIyWlLk6GJQsqaUBKTNV-1" source="R6oYE3YDxSzCmOTQxmxE-3" target="R6oYE3YDxSzCmOTQxmxE-49">
          <mxGeometry relative="1" as="geometry" />
        </mxCell>
        <mxCell id="R6oYE3YDxSzCmOTQxmxE-65" style="edgeStyle=orthogonalEdgeStyle;rounded=0;orthogonalLoop=1;jettySize=auto;html=1;exitX=0.25;exitY=1;exitDx=0;exitDy=0;entryX=0;entryY=0.5;entryDx=0;entryDy=0;" edge="1" parent="WIyWlLk6GJQsqaUBKTNV-1" source="R6oYE3YDxSzCmOTQxmxE-3" target="R6oYE3YDxSzCmOTQxmxE-55">
          <mxGeometry relative="1" as="geometry" />
        </mxCell>
        <mxCell id="R6oYE3YDxSzCmOTQxmxE-66" style="edgeStyle=orthogonalEdgeStyle;rounded=0;orthogonalLoop=1;jettySize=auto;html=1;exitX=0.25;exitY=1;exitDx=0;exitDy=0;entryX=0;entryY=0.5;entryDx=0;entryDy=0;" edge="1" parent="WIyWlLk6GJQsqaUBKTNV-1" source="R6oYE3YDxSzCmOTQxmxE-3" target="R6oYE3YDxSzCmOTQxmxE-59">
          <mxGeometry relative="1" as="geometry" />
        </mxCell>
        <mxCell id="R6oYE3YDxSzCmOTQxmxE-3" value="&lt;font style=&quot;font-size: 14px;&quot;&gt;Database&lt;/font&gt;" style="rounded=1;whiteSpace=wrap;html=1;fillColor=#d5e8d4;strokeColor=#82b366;gradientColor=#97d077;" vertex="1" parent="WIyWlLk6GJQsqaUBKTNV-1">
          <mxGeometry x="400" y="120" width="140" height="40" as="geometry" />
        </mxCell>
        <mxCell id="R6oYE3YDxSzCmOTQxmxE-76" style="edgeStyle=orthogonalEdgeStyle;rounded=0;orthogonalLoop=1;jettySize=auto;html=1;exitX=0.25;exitY=1;exitDx=0;exitDy=0;entryX=0;entryY=0.5;entryDx=0;entryDy=0;" edge="1" parent="WIyWlLk6GJQsqaUBKTNV-1" source="R6oYE3YDxSzCmOTQxmxE-4" target="R6oYE3YDxSzCmOTQxmxE-64">
          <mxGeometry relative="1" as="geometry" />
        </mxCell>
        <mxCell id="R6oYE3YDxSzCmOTQxmxE-86" style="edgeStyle=orthogonalEdgeStyle;rounded=0;orthogonalLoop=1;jettySize=auto;html=1;exitX=0.25;exitY=1;exitDx=0;exitDy=0;entryX=0;entryY=0.5;entryDx=0;entryDy=0;" edge="1" parent="WIyWlLk6GJQsqaUBKTNV-1" source="R6oYE3YDxSzCmOTQxmxE-4" target="R6oYE3YDxSzCmOTQxmxE-82">
          <mxGeometry relative="1" as="geometry" />
        </mxCell>
        <mxCell id="R6oYE3YDxSzCmOTQxmxE-4" value="&lt;font style=&quot;font-size: 14px;&quot;&gt;DevOps&lt;/font&gt;" style="rounded=1;whiteSpace=wrap;html=1;fillColor=#d5e8d4;strokeColor=#82b366;gradientColor=#97d077;" vertex="1" parent="WIyWlLk6GJQsqaUBKTNV-1">
          <mxGeometry x="660" y="120" width="140" height="40" as="geometry" />
        </mxCell>
        <mxCell id="R6oYE3YDxSzCmOTQxmxE-94" style="edgeStyle=orthogonalEdgeStyle;rounded=0;orthogonalLoop=1;jettySize=auto;html=1;exitX=0.25;exitY=1;exitDx=0;exitDy=0;entryX=0;entryY=0.5;entryDx=0;entryDy=0;" edge="1" parent="WIyWlLk6GJQsqaUBKTNV-1" source="R6oYE3YDxSzCmOTQxmxE-5" target="R6oYE3YDxSzCmOTQxmxE-93">
          <mxGeometry relative="1" as="geometry" />
        </mxCell>
        <mxCell id="R6oYE3YDxSzCmOTQxmxE-106" style="edgeStyle=orthogonalEdgeStyle;rounded=0;orthogonalLoop=1;jettySize=auto;html=1;exitX=0.25;exitY=1;exitDx=0;exitDy=0;entryX=0;entryY=0.5;entryDx=0;entryDy=0;" edge="1" parent="WIyWlLk6GJQsqaUBKTNV-1" source="R6oYE3YDxSzCmOTQxmxE-5" target="R6oYE3YDxSzCmOTQxmxE-97">
          <mxGeometry relative="1" as="geometry" />
        </mxCell>
        <mxCell id="R6oYE3YDxSzCmOTQxmxE-107" style="edgeStyle=orthogonalEdgeStyle;rounded=0;orthogonalLoop=1;jettySize=auto;html=1;exitX=0.25;exitY=1;exitDx=0;exitDy=0;entryX=0;entryY=0.5;entryDx=0;entryDy=0;" edge="1" parent="WIyWlLk6GJQsqaUBKTNV-1" source="R6oYE3YDxSzCmOTQxmxE-5" target="R6oYE3YDxSzCmOTQxmxE-100">
          <mxGeometry relative="1" as="geometry" />
        </mxCell>
        <mxCell id="R6oYE3YDxSzCmOTQxmxE-5" value="&lt;font style=&quot;font-size: 14px;&quot;&gt;Mobile App&lt;/font&gt;" style="rounded=1;whiteSpace=wrap;html=1;fillColor=#d5e8d4;strokeColor=#82b366;gradientColor=#97d077;" vertex="1" parent="WIyWlLk6GJQsqaUBKTNV-1">
          <mxGeometry x="930" y="120" width="140" height="40" as="geometry" />
        </mxCell>
        <mxCell id="R6oYE3YDxSzCmOTQxmxE-119" style="edgeStyle=orthogonalEdgeStyle;rounded=0;orthogonalLoop=1;jettySize=auto;html=1;exitX=0.25;exitY=1;exitDx=0;exitDy=0;entryX=0;entryY=0.5;entryDx=0;entryDy=0;" edge="1" parent="WIyWlLk6GJQsqaUBKTNV-1" source="R6oYE3YDxSzCmOTQxmxE-6" target="R6oYE3YDxSzCmOTQxmxE-118">
          <mxGeometry relative="1" as="geometry" />
        </mxCell>
        <mxCell id="R6oYE3YDxSzCmOTQxmxE-134" style="edgeStyle=orthogonalEdgeStyle;rounded=0;orthogonalLoop=1;jettySize=auto;html=1;exitX=0.25;exitY=1;exitDx=0;exitDy=0;entryX=0;entryY=0.5;entryDx=0;entryDy=0;" edge="1" parent="WIyWlLk6GJQsqaUBKTNV-1" source="R6oYE3YDxSzCmOTQxmxE-6" target="R6oYE3YDxSzCmOTQxmxE-124">
          <mxGeometry relative="1" as="geometry" />
        </mxCell>
        <mxCell id="R6oYE3YDxSzCmOTQxmxE-136" style="edgeStyle=orthogonalEdgeStyle;rounded=0;orthogonalLoop=1;jettySize=auto;html=1;exitX=0.25;exitY=1;exitDx=0;exitDy=0;entryX=0;entryY=0.5;entryDx=0;entryDy=0;" edge="1" parent="WIyWlLk6GJQsqaUBKTNV-1" source="R6oYE3YDxSzCmOTQxmxE-6" target="R6oYE3YDxSzCmOTQxmxE-126">
          <mxGeometry relative="1" as="geometry" />
        </mxCell>
        <mxCell id="R6oYE3YDxSzCmOTQxmxE-6" value="&lt;font style=&quot;font-size: 14px;&quot;&gt;Desktop Application&lt;/font&gt;" style="rounded=1;whiteSpace=wrap;html=1;fillColor=#d5e8d4;strokeColor=#82b366;gradientColor=#97d077;" vertex="1" parent="WIyWlLk6GJQsqaUBKTNV-1">
          <mxGeometry x="1200" y="120" width="140" height="40" as="geometry" />
        </mxCell>
        <mxCell id="R6oYE3YDxSzCmOTQxmxE-19" style="edgeStyle=orthogonalEdgeStyle;rounded=0;orthogonalLoop=1;jettySize=auto;html=1;exitX=0.25;exitY=1;exitDx=0;exitDy=0;entryX=0;entryY=0.5;entryDx=0;entryDy=0;" edge="1" parent="WIyWlLk6GJQsqaUBKTNV-1" source="R6oYE3YDxSzCmOTQxmxE-7" target="R6oYE3YDxSzCmOTQxmxE-8">
          <mxGeometry relative="1" as="geometry" />
        </mxCell>
        <mxCell id="R6oYE3YDxSzCmOTQxmxE-20" style="edgeStyle=orthogonalEdgeStyle;rounded=0;orthogonalLoop=1;jettySize=auto;html=1;exitX=0.25;exitY=1;exitDx=0;exitDy=0;entryX=0;entryY=0.5;entryDx=0;entryDy=0;" edge="1" parent="WIyWlLk6GJQsqaUBKTNV-1" source="R6oYE3YDxSzCmOTQxmxE-7" target="R6oYE3YDxSzCmOTQxmxE-9">
          <mxGeometry relative="1" as="geometry" />
        </mxCell>
        <mxCell id="R6oYE3YDxSzCmOTQxmxE-21" style="edgeStyle=orthogonalEdgeStyle;rounded=0;orthogonalLoop=1;jettySize=auto;html=1;exitX=0.25;exitY=1;exitDx=0;exitDy=0;entryX=0;entryY=0.5;entryDx=0;entryDy=0;" edge="1" parent="WIyWlLk6GJQsqaUBKTNV-1" source="R6oYE3YDxSzCmOTQxmxE-7" target="R6oYE3YDxSzCmOTQxmxE-10">
          <mxGeometry relative="1" as="geometry" />
        </mxCell>
        <mxCell id="R6oYE3YDxSzCmOTQxmxE-7" value="&lt;font style=&quot;font-size: 14px;&quot;&gt;Basics&lt;/font&gt;" style="rounded=1;whiteSpace=wrap;html=1;fillColor=#1ba1e2;strokeColor=#006EAF;fontColor=#ffffff;" vertex="1" parent="WIyWlLk6GJQsqaUBKTNV-1">
          <mxGeometry x="-90" y="180" width="140" height="40" as="geometry" />
        </mxCell>
        <mxCell id="R6oYE3YDxSzCmOTQxmxE-8" value="&lt;font style=&quot;font-size: 14px;&quot;&gt;HTML&lt;/font&gt;" style="rounded=1;whiteSpace=wrap;html=1;fillColor=#ffe6cc;strokeColor=#d79b00;" vertex="1" parent="WIyWlLk6GJQsqaUBKTNV-1">
          <mxGeometry x="-30" y="240" width="140" height="40" as="geometry" />
        </mxCell>
        <mxCell id="R6oYE3YDxSzCmOTQxmxE-9" value="&lt;font style=&quot;font-size: 14px;&quot;&gt;CSS&lt;/font&gt;" style="rounded=1;whiteSpace=wrap;html=1;fillColor=#ffe6cc;strokeColor=#d79b00;" vertex="1" parent="WIyWlLk6GJQsqaUBKTNV-1">
          <mxGeometry x="-30" y="290" width="140" height="40" as="geometry" />
        </mxCell>
        <mxCell id="R6oYE3YDxSzCmOTQxmxE-10" value="&lt;font style=&quot;font-size: 14px;&quot;&gt;JavaScript&lt;/font&gt;" style="rounded=1;whiteSpace=wrap;html=1;fillColor=#f8cecc;strokeColor=#b85450;" vertex="1" parent="WIyWlLk6GJQsqaUBKTNV-1">
          <mxGeometry x="-30" y="340" width="140" height="40" as="geometry" />
        </mxCell>
        <mxCell id="R6oYE3YDxSzCmOTQxmxE-24" style="edgeStyle=orthogonalEdgeStyle;rounded=0;orthogonalLoop=1;jettySize=auto;html=1;exitX=0.25;exitY=1;exitDx=0;exitDy=0;entryX=0;entryY=0.5;entryDx=0;entryDy=0;" edge="1" parent="WIyWlLk6GJQsqaUBKTNV-1" source="R6oYE3YDxSzCmOTQxmxE-11" target="R6oYE3YDxSzCmOTQxmxE-12">
          <mxGeometry relative="1" as="geometry" />
        </mxCell>
        <mxCell id="R6oYE3YDxSzCmOTQxmxE-25" style="edgeStyle=orthogonalEdgeStyle;rounded=0;orthogonalLoop=1;jettySize=auto;html=1;exitX=0.25;exitY=1;exitDx=0;exitDy=0;entryX=0;entryY=0.5;entryDx=0;entryDy=0;" edge="1" parent="WIyWlLk6GJQsqaUBKTNV-1" source="R6oYE3YDxSzCmOTQxmxE-11" target="R6oYE3YDxSzCmOTQxmxE-13">
          <mxGeometry relative="1" as="geometry" />
        </mxCell>
        <mxCell id="R6oYE3YDxSzCmOTQxmxE-26" style="edgeStyle=orthogonalEdgeStyle;rounded=0;orthogonalLoop=1;jettySize=auto;html=1;exitX=0.25;exitY=1;exitDx=0;exitDy=0;entryX=0;entryY=0.5;entryDx=0;entryDy=0;" edge="1" parent="WIyWlLk6GJQsqaUBKTNV-1" source="R6oYE3YDxSzCmOTQxmxE-11" target="R6oYE3YDxSzCmOTQxmxE-14">
          <mxGeometry relative="1" as="geometry" />
        </mxCell>
        <mxCell id="R6oYE3YDxSzCmOTQxmxE-11" value="&lt;font style=&quot;font-size: 14px;&quot;&gt;Frameworks/Libs&lt;/font&gt;" style="rounded=1;whiteSpace=wrap;html=1;fillColor=#1ba1e2;strokeColor=#006EAF;fontColor=#ffffff;" vertex="1" parent="WIyWlLk6GJQsqaUBKTNV-1">
          <mxGeometry x="-90" y="400" width="140" height="40" as="geometry" />
        </mxCell>
        <mxCell id="R6oYE3YDxSzCmOTQxmxE-12" value="&lt;font style=&quot;font-size: 14px;&quot;&gt;React&lt;/font&gt;" style="rounded=1;whiteSpace=wrap;html=1;fillColor=#f8cecc;strokeColor=#b85450;" vertex="1" parent="WIyWlLk6GJQsqaUBKTNV-1">
          <mxGeometry x="-30" y="460" width="140" height="40" as="geometry" />
        </mxCell>
        <mxCell id="R6oYE3YDxSzCmOTQxmxE-13" value="&lt;font style=&quot;font-size: 14px;&quot;&gt;Angular&lt;/font&gt;" style="rounded=1;whiteSpace=wrap;html=1;fillColor=#ffe6cc;strokeColor=#d79b00;" vertex="1" parent="WIyWlLk6GJQsqaUBKTNV-1">
          <mxGeometry x="-30" y="510" width="140" height="40" as="geometry" />
        </mxCell>
        <mxCell id="R6oYE3YDxSzCmOTQxmxE-14" value="&lt;font style=&quot;font-size: 14px;&quot;&gt;Vue&lt;/font&gt;" style="rounded=1;whiteSpace=wrap;html=1;fillColor=#ffe6cc;strokeColor=#d79b00;" vertex="1" parent="WIyWlLk6GJQsqaUBKTNV-1">
          <mxGeometry x="-30" y="560" width="140" height="40" as="geometry" />
        </mxCell>
        <mxCell id="R6oYE3YDxSzCmOTQxmxE-27" style="edgeStyle=orthogonalEdgeStyle;rounded=0;orthogonalLoop=1;jettySize=auto;html=1;exitX=0.25;exitY=1;exitDx=0;exitDy=0;entryX=0;entryY=0.5;entryDx=0;entryDy=0;" edge="1" parent="WIyWlLk6GJQsqaUBKTNV-1" source="R6oYE3YDxSzCmOTQxmxE-15" target="R6oYE3YDxSzCmOTQxmxE-16">
          <mxGeometry relative="1" as="geometry" />
        </mxCell>
        <mxCell id="R6oYE3YDxSzCmOTQxmxE-28" style="edgeStyle=orthogonalEdgeStyle;rounded=0;orthogonalLoop=1;jettySize=auto;html=1;exitX=0.25;exitY=1;exitDx=0;exitDy=0;entryX=0;entryY=0.5;entryDx=0;entryDy=0;" edge="1" parent="WIyWlLk6GJQsqaUBKTNV-1" source="R6oYE3YDxSzCmOTQxmxE-15" target="R6oYE3YDxSzCmOTQxmxE-17">
          <mxGeometry relative="1" as="geometry" />
        </mxCell>
        <mxCell id="R6oYE3YDxSzCmOTQxmxE-15" value="&lt;font style=&quot;font-size: 14px;&quot;&gt;Styles&lt;/font&gt;" style="rounded=1;whiteSpace=wrap;html=1;fillColor=#1ba1e2;strokeColor=#006EAF;fontColor=#ffffff;" vertex="1" parent="WIyWlLk6GJQsqaUBKTNV-1">
          <mxGeometry x="-90" y="620" width="140" height="40" as="geometry" />
        </mxCell>
        <mxCell id="R6oYE3YDxSzCmOTQxmxE-16" value="&lt;font style=&quot;font-size: 14px;&quot;&gt;Bootstrap&lt;/font&gt;" style="rounded=1;whiteSpace=wrap;html=1;fillColor=#ffe6cc;strokeColor=#d79b00;" vertex="1" parent="WIyWlLk6GJQsqaUBKTNV-1">
          <mxGeometry x="-30" y="680" width="140" height="40" as="geometry" />
        </mxCell>
        <mxCell id="R6oYE3YDxSzCmOTQxmxE-17" value="&lt;font style=&quot;font-size: 14px;&quot;&gt;Material UI&lt;/font&gt;" style="rounded=1;whiteSpace=wrap;html=1;fillColor=#ffe6cc;strokeColor=#d79b00;" vertex="1" parent="WIyWlLk6GJQsqaUBKTNV-1">
          <mxGeometry x="-30" y="730" width="140" height="40" as="geometry" />
        </mxCell>
        <mxCell id="R6oYE3YDxSzCmOTQxmxE-44" style="edgeStyle=orthogonalEdgeStyle;rounded=0;orthogonalLoop=1;jettySize=auto;html=1;exitX=0.25;exitY=1;exitDx=0;exitDy=0;entryX=0;entryY=0.5;entryDx=0;entryDy=0;" edge="1" parent="WIyWlLk6GJQsqaUBKTNV-1" source="R6oYE3YDxSzCmOTQxmxE-29" target="R6oYE3YDxSzCmOTQxmxE-30">
          <mxGeometry relative="1" as="geometry" />
        </mxCell>
        <mxCell id="R6oYE3YDxSzCmOTQxmxE-29" value="&lt;font style=&quot;font-size: 14px;&quot;&gt;JavaScript&lt;/font&gt;" style="rounded=1;whiteSpace=wrap;html=1;fillColor=#1ba1e2;strokeColor=#006EAF;fontColor=#ffffff;" vertex="1" parent="WIyWlLk6GJQsqaUBKTNV-1">
          <mxGeometry x="180" y="180" width="140" height="40" as="geometry" />
        </mxCell>
        <mxCell id="R6oYE3YDxSzCmOTQxmxE-30" value="&lt;font style=&quot;font-size: 14px;&quot;&gt;Node.js&lt;/font&gt;" style="rounded=1;whiteSpace=wrap;html=1;fillColor=#f8cecc;strokeColor=#b85450;" vertex="1" parent="WIyWlLk6GJQsqaUBKTNV-1">
          <mxGeometry x="240" y="240" width="140" height="40" as="geometry" />
        </mxCell>
        <mxCell id="R6oYE3YDxSzCmOTQxmxE-148" style="edgeStyle=orthogonalEdgeStyle;rounded=0;orthogonalLoop=1;jettySize=auto;html=1;exitX=0.25;exitY=1;exitDx=0;exitDy=0;entryX=0;entryY=0.5;entryDx=0;entryDy=0;" edge="1" parent="WIyWlLk6GJQsqaUBKTNV-1" source="R6oYE3YDxSzCmOTQxmxE-31" target="R6oYE3YDxSzCmOTQxmxE-147">
          <mxGeometry relative="1" as="geometry" />
        </mxCell>
        <mxCell id="R6oYE3YDxSzCmOTQxmxE-31" value="&lt;span style=&quot;font-size: 14px;&quot;&gt;PHP&lt;/span&gt;" style="rounded=1;whiteSpace=wrap;html=1;fillColor=#1ba1e2;strokeColor=#006EAF;fontColor=#ffffff;" vertex="1" parent="WIyWlLk6GJQsqaUBKTNV-1">
          <mxGeometry x="180" y="680" width="140" height="40" as="geometry" />
        </mxCell>
        <mxCell id="R6oYE3YDxSzCmOTQxmxE-47" style="edgeStyle=orthogonalEdgeStyle;rounded=0;orthogonalLoop=1;jettySize=auto;html=1;exitX=0.25;exitY=1;exitDx=0;exitDy=0;entryX=0;entryY=0.5;entryDx=0;entryDy=0;" edge="1" parent="WIyWlLk6GJQsqaUBKTNV-1" source="R6oYE3YDxSzCmOTQxmxE-32" target="R6oYE3YDxSzCmOTQxmxE-34">
          <mxGeometry relative="1" as="geometry" />
        </mxCell>
        <mxCell id="R6oYE3YDxSzCmOTQxmxE-48" style="edgeStyle=orthogonalEdgeStyle;rounded=0;orthogonalLoop=1;jettySize=auto;html=1;exitX=0.25;exitY=1;exitDx=0;exitDy=0;entryX=0;entryY=0.5;entryDx=0;entryDy=0;" edge="1" parent="WIyWlLk6GJQsqaUBKTNV-1" source="R6oYE3YDxSzCmOTQxmxE-32" target="R6oYE3YDxSzCmOTQxmxE-35">
          <mxGeometry relative="1" as="geometry" />
        </mxCell>
        <mxCell id="R6oYE3YDxSzCmOTQxmxE-142" style="edgeStyle=orthogonalEdgeStyle;rounded=0;orthogonalLoop=1;jettySize=auto;html=1;exitX=0.25;exitY=1;exitDx=0;exitDy=0;entryX=0;entryY=0.5;entryDx=0;entryDy=0;" edge="1" parent="WIyWlLk6GJQsqaUBKTNV-1" source="R6oYE3YDxSzCmOTQxmxE-32" target="R6oYE3YDxSzCmOTQxmxE-141">
          <mxGeometry relative="1" as="geometry" />
        </mxCell>
        <mxCell id="R6oYE3YDxSzCmOTQxmxE-32" value="&lt;font style=&quot;font-size: 14px;&quot;&gt;Java&lt;/font&gt;" style="rounded=1;whiteSpace=wrap;html=1;fillColor=#1ba1e2;strokeColor=#006EAF;fontColor=#ffffff;" vertex="1" parent="WIyWlLk6GJQsqaUBKTNV-1">
          <mxGeometry x="180" y="460" width="140" height="40" as="geometry" />
        </mxCell>
        <mxCell id="R6oYE3YDxSzCmOTQxmxE-45" style="edgeStyle=orthogonalEdgeStyle;rounded=0;orthogonalLoop=1;jettySize=auto;html=1;exitX=0.25;exitY=1;exitDx=0;exitDy=0;entryX=0;entryY=0.5;entryDx=0;entryDy=0;" edge="1" parent="WIyWlLk6GJQsqaUBKTNV-1" source="R6oYE3YDxSzCmOTQxmxE-33" target="R6oYE3YDxSzCmOTQxmxE-37">
          <mxGeometry relative="1" as="geometry" />
        </mxCell>
        <mxCell id="R6oYE3YDxSzCmOTQxmxE-46" style="edgeStyle=orthogonalEdgeStyle;rounded=0;orthogonalLoop=1;jettySize=auto;html=1;exitX=0.25;exitY=1;exitDx=0;exitDy=0;entryX=0;entryY=0.5;entryDx=0;entryDy=0;" edge="1" parent="WIyWlLk6GJQsqaUBKTNV-1" source="R6oYE3YDxSzCmOTQxmxE-33" target="R6oYE3YDxSzCmOTQxmxE-38">
          <mxGeometry relative="1" as="geometry" />
        </mxCell>
        <mxCell id="R6oYE3YDxSzCmOTQxmxE-33" value="&lt;font style=&quot;font-size: 14px;&quot;&gt;Python&lt;/font&gt;" style="rounded=1;whiteSpace=wrap;html=1;fillColor=#1ba1e2;strokeColor=#006EAF;fontColor=#ffffff;" vertex="1" parent="WIyWlLk6GJQsqaUBKTNV-1">
          <mxGeometry x="180" y="295" width="140" height="40" as="geometry" />
        </mxCell>
        <mxCell id="R6oYE3YDxSzCmOTQxmxE-34" value="&lt;span style=&quot;font-size: 14px;&quot;&gt;Spring (Boot)&lt;/span&gt;" style="rounded=1;whiteSpace=wrap;html=1;fillColor=#f8cecc;strokeColor=#b85450;" vertex="1" parent="WIyWlLk6GJQsqaUBKTNV-1">
          <mxGeometry x="240" y="520" width="140" height="40" as="geometry" />
        </mxCell>
        <mxCell id="R6oYE3YDxSzCmOTQxmxE-35" value="&lt;span style=&quot;font-size: 14px;&quot;&gt;Hibernate&lt;/span&gt;" style="rounded=1;whiteSpace=wrap;html=1;fillColor=#ffe6cc;strokeColor=#d79b00;" vertex="1" parent="WIyWlLk6GJQsqaUBKTNV-1">
          <mxGeometry x="240" y="570" width="140" height="40" as="geometry" />
        </mxCell>
        <mxCell id="R6oYE3YDxSzCmOTQxmxE-36" value="&lt;font style=&quot;font-size: 14px;&quot;&gt;Asp.NET&lt;/font&gt;" style="rounded=1;whiteSpace=wrap;html=1;fillColor=#1ba1e2;strokeColor=#006EAF;fontColor=#ffffff;" vertex="1" parent="WIyWlLk6GJQsqaUBKTNV-1">
          <mxGeometry x="180" y="790" width="140" height="40" as="geometry" />
        </mxCell>
        <mxCell id="R6oYE3YDxSzCmOTQxmxE-37" value="&lt;span style=&quot;font-size: 14px;&quot;&gt;django&lt;/span&gt;" style="rounded=1;whiteSpace=wrap;html=1;fillColor=#f8cecc;strokeColor=#b85450;" vertex="1" parent="WIyWlLk6GJQsqaUBKTNV-1">
          <mxGeometry x="240" y="350" width="140" height="40" as="geometry" />
        </mxCell>
        <mxCell id="R6oYE3YDxSzCmOTQxmxE-38" value="&lt;span style=&quot;font-size: 14px;&quot;&gt;Flask&lt;/span&gt;" style="rounded=1;whiteSpace=wrap;html=1;fillColor=#ffe6cc;strokeColor=#d79b00;" vertex="1" parent="WIyWlLk6GJQsqaUBKTNV-1">
          <mxGeometry x="240" y="400" width="140" height="40" as="geometry" />
        </mxCell>
        <mxCell id="R6oYE3YDxSzCmOTQxmxE-52" style="edgeStyle=orthogonalEdgeStyle;rounded=0;orthogonalLoop=1;jettySize=auto;html=1;exitX=0.25;exitY=1;exitDx=0;exitDy=0;entryX=0;entryY=0.5;entryDx=0;entryDy=0;" edge="1" parent="WIyWlLk6GJQsqaUBKTNV-1" source="R6oYE3YDxSzCmOTQxmxE-49" target="R6oYE3YDxSzCmOTQxmxE-51">
          <mxGeometry relative="1" as="geometry" />
        </mxCell>
        <mxCell id="R6oYE3YDxSzCmOTQxmxE-67" style="edgeStyle=orthogonalEdgeStyle;rounded=0;orthogonalLoop=1;jettySize=auto;html=1;exitX=0.25;exitY=1;exitDx=0;exitDy=0;entryX=0;entryY=0.5;entryDx=0;entryDy=0;" edge="1" parent="WIyWlLk6GJQsqaUBKTNV-1" source="R6oYE3YDxSzCmOTQxmxE-49" target="R6oYE3YDxSzCmOTQxmxE-53">
          <mxGeometry relative="1" as="geometry" />
        </mxCell>
        <mxCell id="R6oYE3YDxSzCmOTQxmxE-68" style="edgeStyle=orthogonalEdgeStyle;rounded=0;orthogonalLoop=1;jettySize=auto;html=1;exitX=0.25;exitY=1;exitDx=0;exitDy=0;entryX=0;entryY=0.5;entryDx=0;entryDy=0;" edge="1" parent="WIyWlLk6GJQsqaUBKTNV-1" source="R6oYE3YDxSzCmOTQxmxE-49" target="R6oYE3YDxSzCmOTQxmxE-54">
          <mxGeometry relative="1" as="geometry" />
        </mxCell>
        <mxCell id="R6oYE3YDxSzCmOTQxmxE-49" value="&lt;font style=&quot;font-size: 14px;&quot;&gt;RDBMS&lt;/font&gt;" style="rounded=1;whiteSpace=wrap;html=1;fillColor=#1ba1e2;strokeColor=#006EAF;fontColor=#ffffff;" vertex="1" parent="WIyWlLk6GJQsqaUBKTNV-1">
          <mxGeometry x="460" y="180" width="140" height="40" as="geometry" />
        </mxCell>
        <mxCell id="R6oYE3YDxSzCmOTQxmxE-51" value="&lt;span style=&quot;font-size: 14px;&quot;&gt;MySQL&lt;/span&gt;" style="rounded=1;whiteSpace=wrap;html=1;fillColor=#f8cecc;strokeColor=#b85450;" vertex="1" parent="WIyWlLk6GJQsqaUBKTNV-1">
          <mxGeometry x="515" y="240" width="140" height="40" as="geometry" />
        </mxCell>
        <mxCell id="R6oYE3YDxSzCmOTQxmxE-53" value="&lt;span style=&quot;font-size: 14px;&quot;&gt;PostgreSQL&lt;/span&gt;" style="rounded=1;whiteSpace=wrap;html=1;fillColor=#ffe6cc;strokeColor=#d79b00;" vertex="1" parent="WIyWlLk6GJQsqaUBKTNV-1">
          <mxGeometry x="515" y="290" width="140" height="40" as="geometry" />
        </mxCell>
        <mxCell id="R6oYE3YDxSzCmOTQxmxE-54" value="&lt;span style=&quot;font-size: 14px;&quot;&gt;Oracle&lt;/span&gt;" style="rounded=1;whiteSpace=wrap;html=1;fillColor=#ffe6cc;strokeColor=#d79b00;" vertex="1" parent="WIyWlLk6GJQsqaUBKTNV-1">
          <mxGeometry x="515" y="340" width="140" height="40" as="geometry" />
        </mxCell>
        <mxCell id="R6oYE3YDxSzCmOTQxmxE-69" style="edgeStyle=orthogonalEdgeStyle;rounded=0;orthogonalLoop=1;jettySize=auto;html=1;exitX=0.25;exitY=1;exitDx=0;exitDy=0;entryX=0;entryY=0.5;entryDx=0;entryDy=0;" edge="1" parent="WIyWlLk6GJQsqaUBKTNV-1" source="R6oYE3YDxSzCmOTQxmxE-55" target="R6oYE3YDxSzCmOTQxmxE-56">
          <mxGeometry relative="1" as="geometry" />
        </mxCell>
        <mxCell id="R6oYE3YDxSzCmOTQxmxE-70" style="edgeStyle=orthogonalEdgeStyle;rounded=0;orthogonalLoop=1;jettySize=auto;html=1;exitX=0.25;exitY=1;exitDx=0;exitDy=0;entryX=0;entryY=0.5;entryDx=0;entryDy=0;" edge="1" parent="WIyWlLk6GJQsqaUBKTNV-1" source="R6oYE3YDxSzCmOTQxmxE-55" target="R6oYE3YDxSzCmOTQxmxE-57">
          <mxGeometry relative="1" as="geometry" />
        </mxCell>
        <mxCell id="R6oYE3YDxSzCmOTQxmxE-71" style="edgeStyle=orthogonalEdgeStyle;rounded=0;orthogonalLoop=1;jettySize=auto;html=1;exitX=0.25;exitY=1;exitDx=0;exitDy=0;entryX=0;entryY=0.5;entryDx=0;entryDy=0;" edge="1" parent="WIyWlLk6GJQsqaUBKTNV-1" source="R6oYE3YDxSzCmOTQxmxE-55" target="R6oYE3YDxSzCmOTQxmxE-117">
          <mxGeometry relative="1" as="geometry">
            <mxPoint x="515" y="580" as="targetPoint" />
          </mxGeometry>
        </mxCell>
        <mxCell id="R6oYE3YDxSzCmOTQxmxE-55" value="&lt;font style=&quot;font-size: 14px;&quot;&gt;NoSQL&lt;/font&gt;" style="rounded=1;whiteSpace=wrap;html=1;fillColor=#1ba1e2;strokeColor=#006EAF;fontColor=#ffffff;" vertex="1" parent="WIyWlLk6GJQsqaUBKTNV-1">
          <mxGeometry x="460" y="400" width="140" height="40" as="geometry" />
        </mxCell>
        <mxCell id="R6oYE3YDxSzCmOTQxmxE-56" value="&lt;span style=&quot;font-size: 14px;&quot;&gt;mongoDB&lt;/span&gt;" style="rounded=1;whiteSpace=wrap;html=1;fillColor=#f8cecc;strokeColor=#b85450;" vertex="1" parent="WIyWlLk6GJQsqaUBKTNV-1">
          <mxGeometry x="515" y="460" width="140" height="40" as="geometry" />
        </mxCell>
        <mxCell id="R6oYE3YDxSzCmOTQxmxE-57" value="&lt;span style=&quot;font-size: 14px;&quot;&gt;cassandra&lt;/span&gt;" style="rounded=1;whiteSpace=wrap;html=1;fillColor=#ffe6cc;strokeColor=#d79b00;" vertex="1" parent="WIyWlLk6GJQsqaUBKTNV-1">
          <mxGeometry x="515" y="510" width="140" height="40" as="geometry" />
        </mxCell>
        <mxCell id="R6oYE3YDxSzCmOTQxmxE-72" style="edgeStyle=orthogonalEdgeStyle;rounded=0;orthogonalLoop=1;jettySize=auto;html=1;exitX=0.25;exitY=1;exitDx=0;exitDy=0;entryX=0;entryY=0.5;entryDx=0;entryDy=0;" edge="1" parent="WIyWlLk6GJQsqaUBKTNV-1" source="R6oYE3YDxSzCmOTQxmxE-59" target="R6oYE3YDxSzCmOTQxmxE-60">
          <mxGeometry relative="1" as="geometry" />
        </mxCell>
        <mxCell id="R6oYE3YDxSzCmOTQxmxE-73" style="edgeStyle=orthogonalEdgeStyle;rounded=0;orthogonalLoop=1;jettySize=auto;html=1;exitX=0.25;exitY=1;exitDx=0;exitDy=0;entryX=0;entryY=0.5;entryDx=0;entryDy=0;" edge="1" parent="WIyWlLk6GJQsqaUBKTNV-1" source="R6oYE3YDxSzCmOTQxmxE-59" target="R6oYE3YDxSzCmOTQxmxE-61">
          <mxGeometry relative="1" as="geometry" />
        </mxCell>
        <mxCell id="R6oYE3YDxSzCmOTQxmxE-74" style="edgeStyle=orthogonalEdgeStyle;rounded=0;orthogonalLoop=1;jettySize=auto;html=1;exitX=0.25;exitY=1;exitDx=0;exitDy=0;entryX=0;entryY=0.5;entryDx=0;entryDy=0;" edge="1" parent="WIyWlLk6GJQsqaUBKTNV-1" source="R6oYE3YDxSzCmOTQxmxE-59" target="R6oYE3YDxSzCmOTQxmxE-62">
          <mxGeometry relative="1" as="geometry" />
        </mxCell>
        <mxCell id="R6oYE3YDxSzCmOTQxmxE-75" style="edgeStyle=orthogonalEdgeStyle;rounded=0;orthogonalLoop=1;jettySize=auto;html=1;exitX=0.25;exitY=1;exitDx=0;exitDy=0;entryX=0;entryY=0.5;entryDx=0;entryDy=0;" edge="1" parent="WIyWlLk6GJQsqaUBKTNV-1" source="R6oYE3YDxSzCmOTQxmxE-59" target="R6oYE3YDxSzCmOTQxmxE-63">
          <mxGeometry relative="1" as="geometry" />
        </mxCell>
        <mxCell id="R6oYE3YDxSzCmOTQxmxE-59" value="&lt;font style=&quot;font-size: 14px;&quot;&gt;Message Queues&lt;/font&gt;" style="rounded=1;whiteSpace=wrap;html=1;fillColor=#1ba1e2;strokeColor=#006EAF;fontColor=#ffffff;" vertex="1" parent="WIyWlLk6GJQsqaUBKTNV-1">
          <mxGeometry x="460" y="620" width="140" height="40" as="geometry" />
        </mxCell>
        <mxCell id="R6oYE3YDxSzCmOTQxmxE-60" value="&lt;span style=&quot;font-size: 14px;&quot;&gt;Amazon SQS&lt;/span&gt;" style="rounded=1;whiteSpace=wrap;html=1;fillColor=#ffe6cc;strokeColor=#d79b00;" vertex="1" parent="WIyWlLk6GJQsqaUBKTNV-1">
          <mxGeometry x="520" y="680" width="140" height="40" as="geometry" />
        </mxCell>
        <mxCell id="R6oYE3YDxSzCmOTQxmxE-61" value="&lt;span style=&quot;font-size: 14px;&quot;&gt;RabbitMQ&lt;/span&gt;" style="rounded=1;whiteSpace=wrap;html=1;fillColor=#ffe6cc;strokeColor=#d79b00;" vertex="1" parent="WIyWlLk6GJQsqaUBKTNV-1">
          <mxGeometry x="520" y="730" width="140" height="40" as="geometry" />
        </mxCell>
        <mxCell id="R6oYE3YDxSzCmOTQxmxE-62" value="&lt;span style=&quot;font-size: 14px;&quot;&gt;ZeroMQ&lt;/span&gt;" style="rounded=1;whiteSpace=wrap;html=1;fillColor=#ffe6cc;strokeColor=#d79b00;" vertex="1" parent="WIyWlLk6GJQsqaUBKTNV-1">
          <mxGeometry x="520" y="780" width="140" height="40" as="geometry" />
        </mxCell>
        <mxCell id="R6oYE3YDxSzCmOTQxmxE-63" value="&lt;span style=&quot;font-size: 14px;&quot;&gt;kafka&lt;/span&gt;" style="rounded=1;whiteSpace=wrap;html=1;fillColor=#ffe6cc;strokeColor=#d79b00;" vertex="1" parent="WIyWlLk6GJQsqaUBKTNV-1">
          <mxGeometry x="520" y="830" width="140" height="40" as="geometry" />
        </mxCell>
        <mxCell id="R6oYE3YDxSzCmOTQxmxE-78" style="edgeStyle=orthogonalEdgeStyle;rounded=0;orthogonalLoop=1;jettySize=auto;html=1;exitX=0.25;exitY=1;exitDx=0;exitDy=0;entryX=0;entryY=0.5;entryDx=0;entryDy=0;" edge="1" parent="WIyWlLk6GJQsqaUBKTNV-1" source="R6oYE3YDxSzCmOTQxmxE-64" target="R6oYE3YDxSzCmOTQxmxE-77">
          <mxGeometry relative="1" as="geometry" />
        </mxCell>
        <mxCell id="R6oYE3YDxSzCmOTQxmxE-87" style="edgeStyle=orthogonalEdgeStyle;rounded=0;orthogonalLoop=1;jettySize=auto;html=1;exitX=0.25;exitY=1;exitDx=0;exitDy=0;entryX=0;entryY=0.5;entryDx=0;entryDy=0;" edge="1" parent="WIyWlLk6GJQsqaUBKTNV-1" source="R6oYE3YDxSzCmOTQxmxE-64" target="R6oYE3YDxSzCmOTQxmxE-79">
          <mxGeometry relative="1" as="geometry" />
        </mxCell>
        <mxCell id="R6oYE3YDxSzCmOTQxmxE-88" style="edgeStyle=orthogonalEdgeStyle;rounded=0;orthogonalLoop=1;jettySize=auto;html=1;exitX=0.25;exitY=1;exitDx=0;exitDy=0;entryX=0;entryY=0.5;entryDx=0;entryDy=0;" edge="1" parent="WIyWlLk6GJQsqaUBKTNV-1" source="R6oYE3YDxSzCmOTQxmxE-64" target="R6oYE3YDxSzCmOTQxmxE-80">
          <mxGeometry relative="1" as="geometry" />
        </mxCell>
        <mxCell id="R6oYE3YDxSzCmOTQxmxE-89" style="edgeStyle=orthogonalEdgeStyle;rounded=0;orthogonalLoop=1;jettySize=auto;html=1;exitX=0.25;exitY=1;exitDx=0;exitDy=0;entryX=0;entryY=0.5;entryDx=0;entryDy=0;" edge="1" parent="WIyWlLk6GJQsqaUBKTNV-1" source="R6oYE3YDxSzCmOTQxmxE-64" target="R6oYE3YDxSzCmOTQxmxE-81">
          <mxGeometry relative="1" as="geometry" />
        </mxCell>
        <mxCell id="R6oYE3YDxSzCmOTQxmxE-64" value="&lt;font style=&quot;font-size: 14px;&quot;&gt;Infrastructure&lt;/font&gt;" style="rounded=1;whiteSpace=wrap;html=1;fillColor=#1ba1e2;strokeColor=#006EAF;fontColor=#ffffff;" vertex="1" parent="WIyWlLk6GJQsqaUBKTNV-1">
          <mxGeometry x="720" y="180" width="140" height="40" as="geometry" />
        </mxCell>
        <mxCell id="R6oYE3YDxSzCmOTQxmxE-77" value="&lt;span style=&quot;font-size: 14px;&quot;&gt;NGINX&lt;/span&gt;" style="rounded=1;whiteSpace=wrap;html=1;fillColor=#ffe6cc;strokeColor=#d79b00;" vertex="1" parent="WIyWlLk6GJQsqaUBKTNV-1">
          <mxGeometry x="780" y="240" width="140" height="40" as="geometry" />
        </mxCell>
        <mxCell id="R6oYE3YDxSzCmOTQxmxE-79" value="&lt;span style=&quot;font-size: 14px;&quot;&gt;Amazon AWS&lt;/span&gt;" style="rounded=1;whiteSpace=wrap;html=1;fillColor=#ffe6cc;strokeColor=#d79b00;" vertex="1" parent="WIyWlLk6GJQsqaUBKTNV-1">
          <mxGeometry x="780" y="290" width="140" height="40" as="geometry" />
        </mxCell>
        <mxCell id="R6oYE3YDxSzCmOTQxmxE-80" value="&lt;span style=&quot;font-size: 14px;&quot;&gt;Miscrosoft Azure&lt;/span&gt;" style="rounded=1;whiteSpace=wrap;html=1;fillColor=#ffe6cc;strokeColor=#d79b00;" vertex="1" parent="WIyWlLk6GJQsqaUBKTNV-1">
          <mxGeometry x="780" y="340" width="140" height="40" as="geometry" />
        </mxCell>
        <mxCell id="R6oYE3YDxSzCmOTQxmxE-81" value="&lt;span style=&quot;font-size: 14px;&quot;&gt;Google Cloud&lt;/span&gt;" style="rounded=1;whiteSpace=wrap;html=1;fillColor=#ffe6cc;strokeColor=#d79b00;" vertex="1" parent="WIyWlLk6GJQsqaUBKTNV-1">
          <mxGeometry x="780" y="394" width="140" height="40" as="geometry" />
        </mxCell>
        <mxCell id="R6oYE3YDxSzCmOTQxmxE-90" style="edgeStyle=orthogonalEdgeStyle;rounded=0;orthogonalLoop=1;jettySize=auto;html=1;exitX=0.25;exitY=1;exitDx=0;exitDy=0;entryX=0;entryY=0.5;entryDx=0;entryDy=0;" edge="1" parent="WIyWlLk6GJQsqaUBKTNV-1" source="R6oYE3YDxSzCmOTQxmxE-82" target="R6oYE3YDxSzCmOTQxmxE-83">
          <mxGeometry relative="1" as="geometry" />
        </mxCell>
        <mxCell id="R6oYE3YDxSzCmOTQxmxE-91" style="edgeStyle=orthogonalEdgeStyle;rounded=0;orthogonalLoop=1;jettySize=auto;html=1;exitX=0.25;exitY=1;exitDx=0;exitDy=0;entryX=0;entryY=0.5;entryDx=0;entryDy=0;" edge="1" parent="WIyWlLk6GJQsqaUBKTNV-1" source="R6oYE3YDxSzCmOTQxmxE-82" target="R6oYE3YDxSzCmOTQxmxE-84">
          <mxGeometry relative="1" as="geometry" />
        </mxCell>
        <mxCell id="R6oYE3YDxSzCmOTQxmxE-92" style="edgeStyle=orthogonalEdgeStyle;rounded=0;orthogonalLoop=1;jettySize=auto;html=1;exitX=0.25;exitY=1;exitDx=0;exitDy=0;entryX=0;entryY=0.5;entryDx=0;entryDy=0;" edge="1" parent="WIyWlLk6GJQsqaUBKTNV-1" source="R6oYE3YDxSzCmOTQxmxE-82" target="R6oYE3YDxSzCmOTQxmxE-85">
          <mxGeometry relative="1" as="geometry" />
        </mxCell>
        <mxCell id="R6oYE3YDxSzCmOTQxmxE-82" value="&lt;font style=&quot;font-size: 14px;&quot;&gt;Virtualization&lt;/font&gt;" style="rounded=1;whiteSpace=wrap;html=1;fillColor=#1ba1e2;strokeColor=#006EAF;fontColor=#ffffff;" vertex="1" parent="WIyWlLk6GJQsqaUBKTNV-1">
          <mxGeometry x="725" y="450" width="140" height="40" as="geometry" />
        </mxCell>
        <mxCell id="R6oYE3YDxSzCmOTQxmxE-83" value="&lt;span style=&quot;font-size: 14px;&quot;&gt;docker&lt;/span&gt;" style="rounded=1;whiteSpace=wrap;html=1;fillColor=#ffe6cc;strokeColor=#d79b00;" vertex="1" parent="WIyWlLk6GJQsqaUBKTNV-1">
          <mxGeometry x="780" y="510" width="140" height="40" as="geometry" />
        </mxCell>
        <mxCell id="R6oYE3YDxSzCmOTQxmxE-84" value="&lt;span style=&quot;font-size: 14px;&quot;&gt;kubernetes&lt;/span&gt;" style="rounded=1;whiteSpace=wrap;html=1;fillColor=#ffe6cc;strokeColor=#d79b00;" vertex="1" parent="WIyWlLk6GJQsqaUBKTNV-1">
          <mxGeometry x="780" y="560" width="140" height="40" as="geometry" />
        </mxCell>
        <mxCell id="R6oYE3YDxSzCmOTQxmxE-85" value="&lt;span style=&quot;font-size: 14px;&quot;&gt;VMWare&lt;/span&gt;" style="rounded=1;whiteSpace=wrap;html=1;fillColor=#ffe6cc;strokeColor=#d79b00;" vertex="1" parent="WIyWlLk6GJQsqaUBKTNV-1">
          <mxGeometry x="780" y="610" width="140" height="40" as="geometry" />
        </mxCell>
        <mxCell id="R6oYE3YDxSzCmOTQxmxE-108" style="edgeStyle=orthogonalEdgeStyle;rounded=0;orthogonalLoop=1;jettySize=auto;html=1;exitX=0.25;exitY=1;exitDx=0;exitDy=0;entryX=0;entryY=0.5;entryDx=0;entryDy=0;" edge="1" parent="WIyWlLk6GJQsqaUBKTNV-1" source="R6oYE3YDxSzCmOTQxmxE-93" target="R6oYE3YDxSzCmOTQxmxE-95">
          <mxGeometry relative="1" as="geometry" />
        </mxCell>
        <mxCell id="R6oYE3YDxSzCmOTQxmxE-109" style="edgeStyle=orthogonalEdgeStyle;rounded=0;orthogonalLoop=1;jettySize=auto;html=1;exitX=0.25;exitY=1;exitDx=0;exitDy=0;entryX=0;entryY=0.5;entryDx=0;entryDy=0;" edge="1" parent="WIyWlLk6GJQsqaUBKTNV-1" source="R6oYE3YDxSzCmOTQxmxE-93" target="R6oYE3YDxSzCmOTQxmxE-96">
          <mxGeometry relative="1" as="geometry" />
        </mxCell>
        <mxCell id="R6oYE3YDxSzCmOTQxmxE-93" value="&lt;font style=&quot;font-size: 14px;&quot;&gt;Android&lt;/font&gt;" style="rounded=1;whiteSpace=wrap;html=1;fillColor=#1ba1e2;strokeColor=#006EAF;fontColor=#ffffff;" vertex="1" parent="WIyWlLk6GJQsqaUBKTNV-1">
          <mxGeometry x="990" y="180" width="140" height="40" as="geometry" />
        </mxCell>
        <mxCell id="R6oYE3YDxSzCmOTQxmxE-95" value="&lt;span style=&quot;font-size: 14px;&quot;&gt;Java&lt;/span&gt;" style="rounded=1;whiteSpace=wrap;html=1;fillColor=#f8cecc;strokeColor=#b85450;" vertex="1" parent="WIyWlLk6GJQsqaUBKTNV-1">
          <mxGeometry x="1050" y="240" width="140" height="40" as="geometry" />
        </mxCell>
        <mxCell id="R6oYE3YDxSzCmOTQxmxE-96" value="&lt;span style=&quot;font-size: 14px;&quot;&gt;Kotlin&lt;/span&gt;" style="rounded=1;whiteSpace=wrap;html=1;fillColor=#ffe6cc;strokeColor=#d79b00;" vertex="1" parent="WIyWlLk6GJQsqaUBKTNV-1">
          <mxGeometry x="1050" y="290" width="140" height="40" as="geometry" />
        </mxCell>
        <mxCell id="R6oYE3YDxSzCmOTQxmxE-110" style="edgeStyle=orthogonalEdgeStyle;rounded=0;orthogonalLoop=1;jettySize=auto;html=1;exitX=0.25;exitY=1;exitDx=0;exitDy=0;entryX=0;entryY=0.5;entryDx=0;entryDy=0;" edge="1" parent="WIyWlLk6GJQsqaUBKTNV-1" source="R6oYE3YDxSzCmOTQxmxE-97" target="R6oYE3YDxSzCmOTQxmxE-98">
          <mxGeometry relative="1" as="geometry" />
        </mxCell>
        <mxCell id="R6oYE3YDxSzCmOTQxmxE-111" style="edgeStyle=orthogonalEdgeStyle;rounded=0;orthogonalLoop=1;jettySize=auto;html=1;exitX=0.25;exitY=1;exitDx=0;exitDy=0;entryX=0;entryY=0.5;entryDx=0;entryDy=0;" edge="1" parent="WIyWlLk6GJQsqaUBKTNV-1" source="R6oYE3YDxSzCmOTQxmxE-97" target="R6oYE3YDxSzCmOTQxmxE-99">
          <mxGeometry relative="1" as="geometry" />
        </mxCell>
        <mxCell id="R6oYE3YDxSzCmOTQxmxE-97" value="&lt;font style=&quot;font-size: 14px;&quot;&gt;iOS&lt;/font&gt;" style="rounded=1;whiteSpace=wrap;html=1;fillColor=#1ba1e2;strokeColor=#006EAF;fontColor=#ffffff;" vertex="1" parent="WIyWlLk6GJQsqaUBKTNV-1">
          <mxGeometry x="990" y="350" width="140" height="40" as="geometry" />
        </mxCell>
        <mxCell id="R6oYE3YDxSzCmOTQxmxE-98" value="&lt;span style=&quot;font-size: 14px;&quot;&gt;Objective-C&lt;/span&gt;" style="rounded=1;whiteSpace=wrap;html=1;fillColor=#ffe6cc;strokeColor=#d79b00;" vertex="1" parent="WIyWlLk6GJQsqaUBKTNV-1">
          <mxGeometry x="1050" y="410" width="140" height="40" as="geometry" />
        </mxCell>
        <mxCell id="R6oYE3YDxSzCmOTQxmxE-99" value="&lt;span style=&quot;font-size: 14px;&quot;&gt;Swift&lt;/span&gt;" style="rounded=1;whiteSpace=wrap;html=1;fillColor=#f8cecc;strokeColor=#b85450;" vertex="1" parent="WIyWlLk6GJQsqaUBKTNV-1">
          <mxGeometry x="1050" y="460" width="140" height="40" as="geometry" />
        </mxCell>
        <mxCell id="R6oYE3YDxSzCmOTQxmxE-112" style="edgeStyle=orthogonalEdgeStyle;rounded=0;orthogonalLoop=1;jettySize=auto;html=1;exitX=0.25;exitY=1;exitDx=0;exitDy=0;entryX=0;entryY=0.5;entryDx=0;entryDy=0;" edge="1" parent="WIyWlLk6GJQsqaUBKTNV-1" source="R6oYE3YDxSzCmOTQxmxE-100" target="R6oYE3YDxSzCmOTQxmxE-101">
          <mxGeometry relative="1" as="geometry" />
        </mxCell>
        <mxCell id="R6oYE3YDxSzCmOTQxmxE-113" style="edgeStyle=orthogonalEdgeStyle;rounded=0;orthogonalLoop=1;jettySize=auto;html=1;exitX=0.25;exitY=1;exitDx=0;exitDy=0;entryX=0;entryY=0.5;entryDx=0;entryDy=0;" edge="1" parent="WIyWlLk6GJQsqaUBKTNV-1" source="R6oYE3YDxSzCmOTQxmxE-100" target="R6oYE3YDxSzCmOTQxmxE-103">
          <mxGeometry relative="1" as="geometry" />
        </mxCell>
        <mxCell id="R6oYE3YDxSzCmOTQxmxE-114" style="edgeStyle=orthogonalEdgeStyle;rounded=0;orthogonalLoop=1;jettySize=auto;html=1;exitX=0.25;exitY=1;exitDx=0;exitDy=0;entryX=0;entryY=0.5;entryDx=0;entryDy=0;" edge="1" parent="WIyWlLk6GJQsqaUBKTNV-1" source="R6oYE3YDxSzCmOTQxmxE-100" target="R6oYE3YDxSzCmOTQxmxE-102">
          <mxGeometry relative="1" as="geometry" />
        </mxCell>
        <mxCell id="R6oYE3YDxSzCmOTQxmxE-115" style="edgeStyle=orthogonalEdgeStyle;rounded=0;orthogonalLoop=1;jettySize=auto;html=1;exitX=0.25;exitY=1;exitDx=0;exitDy=0;entryX=0;entryY=0.5;entryDx=0;entryDy=0;" edge="1" parent="WIyWlLk6GJQsqaUBKTNV-1" source="R6oYE3YDxSzCmOTQxmxE-100" target="R6oYE3YDxSzCmOTQxmxE-104">
          <mxGeometry relative="1" as="geometry" />
        </mxCell>
        <mxCell id="R6oYE3YDxSzCmOTQxmxE-116" style="edgeStyle=orthogonalEdgeStyle;rounded=0;orthogonalLoop=1;jettySize=auto;html=1;exitX=0.25;exitY=1;exitDx=0;exitDy=0;entryX=0;entryY=0.5;entryDx=0;entryDy=0;" edge="1" parent="WIyWlLk6GJQsqaUBKTNV-1" source="R6oYE3YDxSzCmOTQxmxE-100" target="R6oYE3YDxSzCmOTQxmxE-105">
          <mxGeometry relative="1" as="geometry" />
        </mxCell>
        <mxCell id="R6oYE3YDxSzCmOTQxmxE-100" value="&lt;font style=&quot;font-size: 14px;&quot;&gt;Cross Platform&lt;/font&gt;" style="rounded=1;whiteSpace=wrap;html=1;fillColor=#1ba1e2;strokeColor=#006EAF;fontColor=#ffffff;" vertex="1" parent="WIyWlLk6GJQsqaUBKTNV-1">
          <mxGeometry x="990" y="520" width="140" height="40" as="geometry" />
        </mxCell>
        <mxCell id="R6oYE3YDxSzCmOTQxmxE-101" value="&lt;span style=&quot;font-size: 14px;&quot;&gt;React Native&lt;/span&gt;" style="rounded=1;whiteSpace=wrap;html=1;fillColor=#f8cecc;strokeColor=#b85450;" vertex="1" parent="WIyWlLk6GJQsqaUBKTNV-1">
          <mxGeometry x="1050" y="580" width="140" height="40" as="geometry" />
        </mxCell>
        <mxCell id="R6oYE3YDxSzCmOTQxmxE-102" value="&lt;span style=&quot;font-size: 14px;&quot;&gt;Electron&lt;/span&gt;" style="rounded=1;whiteSpace=wrap;html=1;fillColor=#ffe6cc;strokeColor=#d79b00;" vertex="1" parent="WIyWlLk6GJQsqaUBKTNV-1">
          <mxGeometry x="1050" y="680" width="140" height="40" as="geometry" />
        </mxCell>
        <mxCell id="R6oYE3YDxSzCmOTQxmxE-103" value="&lt;span style=&quot;font-size: 14px;&quot;&gt;Flutter&lt;/span&gt;" style="rounded=1;whiteSpace=wrap;html=1;fillColor=#ffe6cc;strokeColor=#d79b00;" vertex="1" parent="WIyWlLk6GJQsqaUBKTNV-1">
          <mxGeometry x="1050" y="630" width="140" height="40" as="geometry" />
        </mxCell>
        <mxCell id="R6oYE3YDxSzCmOTQxmxE-104" value="&lt;span style=&quot;font-size: 14px;&quot;&gt;IONIC&lt;/span&gt;" style="rounded=1;whiteSpace=wrap;html=1;fillColor=#ffe6cc;strokeColor=#d79b00;" vertex="1" parent="WIyWlLk6GJQsqaUBKTNV-1">
          <mxGeometry x="1050" y="730" width="140" height="40" as="geometry" />
        </mxCell>
        <mxCell id="R6oYE3YDxSzCmOTQxmxE-105" value="&lt;span style=&quot;font-size: 14px;&quot;&gt;Unity&lt;/span&gt;" style="rounded=1;whiteSpace=wrap;html=1;fillColor=#ffe6cc;strokeColor=#d79b00;" vertex="1" parent="WIyWlLk6GJQsqaUBKTNV-1">
          <mxGeometry x="1050" y="780" width="140" height="40" as="geometry" />
        </mxCell>
        <mxCell id="R6oYE3YDxSzCmOTQxmxE-117" value="&lt;span style=&quot;font-size: 14px;&quot;&gt;ElasticSearch&lt;/span&gt;" style="rounded=1;whiteSpace=wrap;html=1;fillColor=#ffe6cc;strokeColor=#d79b00;" vertex="1" parent="WIyWlLk6GJQsqaUBKTNV-1">
          <mxGeometry x="515" y="560" width="140" height="40" as="geometry" />
        </mxCell>
        <mxCell id="R6oYE3YDxSzCmOTQxmxE-129" style="edgeStyle=orthogonalEdgeStyle;rounded=0;orthogonalLoop=1;jettySize=auto;html=1;exitX=0.25;exitY=1;exitDx=0;exitDy=0;entryX=0;entryY=0.5;entryDx=0;entryDy=0;" edge="1" parent="WIyWlLk6GJQsqaUBKTNV-1" source="R6oYE3YDxSzCmOTQxmxE-118" target="R6oYE3YDxSzCmOTQxmxE-120">
          <mxGeometry relative="1" as="geometry" />
        </mxCell>
        <mxCell id="R6oYE3YDxSzCmOTQxmxE-130" style="edgeStyle=orthogonalEdgeStyle;rounded=0;orthogonalLoop=1;jettySize=auto;html=1;exitX=0.25;exitY=1;exitDx=0;exitDy=0;entryX=0;entryY=0.5;entryDx=0;entryDy=0;" edge="1" parent="WIyWlLk6GJQsqaUBKTNV-1" source="R6oYE3YDxSzCmOTQxmxE-118" target="R6oYE3YDxSzCmOTQxmxE-121">
          <mxGeometry relative="1" as="geometry" />
        </mxCell>
        <mxCell id="R6oYE3YDxSzCmOTQxmxE-131" style="edgeStyle=orthogonalEdgeStyle;rounded=0;orthogonalLoop=1;jettySize=auto;html=1;exitX=0.25;exitY=1;exitDx=0;exitDy=0;entryX=0;entryY=0.5;entryDx=0;entryDy=0;" edge="1" parent="WIyWlLk6GJQsqaUBKTNV-1" source="R6oYE3YDxSzCmOTQxmxE-118" target="R6oYE3YDxSzCmOTQxmxE-122">
          <mxGeometry relative="1" as="geometry" />
        </mxCell>
        <mxCell id="R6oYE3YDxSzCmOTQxmxE-132" style="edgeStyle=orthogonalEdgeStyle;rounded=0;orthogonalLoop=1;jettySize=auto;html=1;exitX=0.25;exitY=1;exitDx=0;exitDy=0;entryX=0;entryY=0.5;entryDx=0;entryDy=0;" edge="1" parent="WIyWlLk6GJQsqaUBKTNV-1" source="R6oYE3YDxSzCmOTQxmxE-118" target="R6oYE3YDxSzCmOTQxmxE-128">
          <mxGeometry relative="1" as="geometry" />
        </mxCell>
        <mxCell id="R6oYE3YDxSzCmOTQxmxE-133" style="edgeStyle=orthogonalEdgeStyle;rounded=0;orthogonalLoop=1;jettySize=auto;html=1;exitX=0.25;exitY=1;exitDx=0;exitDy=0;entryX=0;entryY=0.5;entryDx=0;entryDy=0;" edge="1" parent="WIyWlLk6GJQsqaUBKTNV-1" source="R6oYE3YDxSzCmOTQxmxE-118" target="R6oYE3YDxSzCmOTQxmxE-123">
          <mxGeometry relative="1" as="geometry" />
        </mxCell>
        <mxCell id="R6oYE3YDxSzCmOTQxmxE-138" style="edgeStyle=orthogonalEdgeStyle;rounded=0;orthogonalLoop=1;jettySize=auto;html=1;exitX=0.25;exitY=1;exitDx=0;exitDy=0;entryX=0;entryY=0.5;entryDx=0;entryDy=0;" edge="1" parent="WIyWlLk6GJQsqaUBKTNV-1" source="R6oYE3YDxSzCmOTQxmxE-118" target="R6oYE3YDxSzCmOTQxmxE-137">
          <mxGeometry relative="1" as="geometry" />
        </mxCell>
        <mxCell id="R6oYE3YDxSzCmOTQxmxE-118" value="&lt;font style=&quot;font-size: 14px;&quot;&gt;Cross Platform&lt;/font&gt;" style="rounded=1;whiteSpace=wrap;html=1;fillColor=#1ba1e2;strokeColor=#006EAF;fontColor=#ffffff;" vertex="1" parent="WIyWlLk6GJQsqaUBKTNV-1">
          <mxGeometry x="1260" y="180" width="140" height="40" as="geometry" />
        </mxCell>
        <mxCell id="R6oYE3YDxSzCmOTQxmxE-120" value="&lt;span style=&quot;font-size: 14px;&quot;&gt;Qt&lt;/span&gt;" style="rounded=1;whiteSpace=wrap;html=1;fillColor=#f8cecc;strokeColor=#b85450;" vertex="1" parent="WIyWlLk6GJQsqaUBKTNV-1">
          <mxGeometry x="1320" y="240" width="140" height="40" as="geometry" />
        </mxCell>
        <mxCell id="R6oYE3YDxSzCmOTQxmxE-121" value="&lt;span style=&quot;font-size: 14px;&quot;&gt;GTK+&lt;/span&gt;" style="rounded=1;whiteSpace=wrap;html=1;fillColor=#ffe6cc;strokeColor=#d79b00;" vertex="1" parent="WIyWlLk6GJQsqaUBKTNV-1">
          <mxGeometry x="1320" y="440" width="140" height="40" as="geometry" />
        </mxCell>
        <mxCell id="R6oYE3YDxSzCmOTQxmxE-122" value="&lt;span style=&quot;font-size: 14px;&quot;&gt;JavaFX&lt;/span&gt;" style="rounded=1;whiteSpace=wrap;html=1;fillColor=#ffe6cc;strokeColor=#d79b00;" vertex="1" parent="WIyWlLk6GJQsqaUBKTNV-1">
          <mxGeometry x="1320" y="290" width="140" height="40" as="geometry" />
        </mxCell>
        <mxCell id="R6oYE3YDxSzCmOTQxmxE-123" value="&lt;span style=&quot;font-size: 14px;&quot;&gt;wxWidgets&lt;/span&gt;" style="rounded=1;whiteSpace=wrap;html=1;fillColor=#ffe6cc;strokeColor=#d79b00;" vertex="1" parent="WIyWlLk6GJQsqaUBKTNV-1">
          <mxGeometry x="1320" y="490" width="140" height="40" as="geometry" />
        </mxCell>
        <mxCell id="R6oYE3YDxSzCmOTQxmxE-135" style="edgeStyle=orthogonalEdgeStyle;rounded=0;orthogonalLoop=1;jettySize=auto;html=1;exitX=0.25;exitY=1;exitDx=0;exitDy=0;entryX=0;entryY=0.5;entryDx=0;entryDy=0;" edge="1" parent="WIyWlLk6GJQsqaUBKTNV-1" source="R6oYE3YDxSzCmOTQxmxE-124" target="R6oYE3YDxSzCmOTQxmxE-125">
          <mxGeometry relative="1" as="geometry" />
        </mxCell>
        <mxCell id="R6oYE3YDxSzCmOTQxmxE-124" value="&lt;font style=&quot;font-size: 14px;&quot;&gt;Windows&lt;/font&gt;" style="rounded=1;whiteSpace=wrap;html=1;fillColor=#1ba1e2;strokeColor=#006EAF;fontColor=#ffffff;" vertex="1" parent="WIyWlLk6GJQsqaUBKTNV-1">
          <mxGeometry x="1260" y="550" width="140" height="40" as="geometry" />
        </mxCell>
        <mxCell id="R6oYE3YDxSzCmOTQxmxE-125" value="&lt;span style=&quot;font-size: 14px;&quot;&gt;WPF&lt;/span&gt;" style="rounded=1;whiteSpace=wrap;html=1;fillColor=#ffe6cc;strokeColor=#d79b00;" vertex="1" parent="WIyWlLk6GJQsqaUBKTNV-1">
          <mxGeometry x="1320" y="610" width="140" height="40" as="geometry" />
        </mxCell>
        <mxCell id="R6oYE3YDxSzCmOTQxmxE-140" style="edgeStyle=orthogonalEdgeStyle;rounded=0;orthogonalLoop=1;jettySize=auto;html=1;exitX=0.25;exitY=1;exitDx=0;exitDy=0;entryX=0;entryY=0.5;entryDx=0;entryDy=0;" edge="1" parent="WIyWlLk6GJQsqaUBKTNV-1" source="R6oYE3YDxSzCmOTQxmxE-126" target="R6oYE3YDxSzCmOTQxmxE-139">
          <mxGeometry relative="1" as="geometry" />
        </mxCell>
        <mxCell id="R6oYE3YDxSzCmOTQxmxE-126" value="&lt;font style=&quot;font-size: 14px;&quot;&gt;macOS&lt;/font&gt;" style="rounded=1;whiteSpace=wrap;html=1;fillColor=#1ba1e2;strokeColor=#006EAF;fontColor=#ffffff;" vertex="1" parent="WIyWlLk6GJQsqaUBKTNV-1">
          <mxGeometry x="1260" y="670" width="140" height="40" as="geometry" />
        </mxCell>
        <mxCell id="R6oYE3YDxSzCmOTQxmxE-128" value="&lt;span style=&quot;font-size: 14px;&quot;&gt;Electron&lt;/span&gt;" style="rounded=1;whiteSpace=wrap;html=1;fillColor=#ffe6cc;strokeColor=#d79b00;" vertex="1" parent="WIyWlLk6GJQsqaUBKTNV-1">
          <mxGeometry x="1320" y="340" width="140" height="40" as="geometry" />
        </mxCell>
        <mxCell id="R6oYE3YDxSzCmOTQxmxE-137" value="&lt;span style=&quot;font-size: 14px;&quot;&gt;Flutter&lt;/span&gt;" style="rounded=1;whiteSpace=wrap;html=1;fillColor=#ffe6cc;strokeColor=#d79b00;" vertex="1" parent="WIyWlLk6GJQsqaUBKTNV-1">
          <mxGeometry x="1320" y="390" width="140" height="40" as="geometry" />
        </mxCell>
        <mxCell id="R6oYE3YDxSzCmOTQxmxE-139" value="&lt;span style=&quot;font-size: 14px;&quot;&gt;SwiftUI&lt;/span&gt;" style="rounded=1;whiteSpace=wrap;html=1;fillColor=#ffe6cc;strokeColor=#d79b00;" vertex="1" parent="WIyWlLk6GJQsqaUBKTNV-1">
          <mxGeometry x="1320" y="730" width="140" height="40" as="geometry" />
        </mxCell>
        <mxCell id="R6oYE3YDxSzCmOTQxmxE-141" value="&lt;span style=&quot;font-size: 14px;&quot;&gt;Struts&lt;/span&gt;" style="rounded=1;whiteSpace=wrap;html=1;fillColor=#ffe6cc;strokeColor=#d79b00;" vertex="1" parent="WIyWlLk6GJQsqaUBKTNV-1">
          <mxGeometry x="240" y="620" width="140" height="40" as="geometry" />
        </mxCell>
        <mxCell id="R6oYE3YDxSzCmOTQxmxE-146" style="edgeStyle=orthogonalEdgeStyle;rounded=0;orthogonalLoop=1;jettySize=auto;html=1;exitX=0.25;exitY=1;exitDx=0;exitDy=0;entryX=0;entryY=0.5;entryDx=0;entryDy=0;" edge="1" parent="WIyWlLk6GJQsqaUBKTNV-1" source="R6oYE3YDxSzCmOTQxmxE-143" target="R6oYE3YDxSzCmOTQxmxE-144">
          <mxGeometry relative="1" as="geometry" />
        </mxCell>
        <mxCell id="R6oYE3YDxSzCmOTQxmxE-143" value="&lt;font style=&quot;font-size: 14px;&quot;&gt;Ruby&lt;/font&gt;" style="rounded=1;whiteSpace=wrap;html=1;fillColor=#1ba1e2;strokeColor=#006EAF;fontColor=#ffffff;" vertex="1" parent="WIyWlLk6GJQsqaUBKTNV-1">
          <mxGeometry x="180" y="850" width="140" height="40" as="geometry" />
        </mxCell>
        <mxCell id="R6oYE3YDxSzCmOTQxmxE-144" value="&lt;span style=&quot;font-size: 14px;&quot;&gt;Ruby on Rails&lt;/span&gt;" style="rounded=1;whiteSpace=wrap;html=1;fillColor=#ffe6cc;strokeColor=#d79b00;" vertex="1" parent="WIyWlLk6GJQsqaUBKTNV-1">
          <mxGeometry x="240" y="910" width="140" height="40" as="geometry" />
        </mxCell>
        <mxCell id="R6oYE3YDxSzCmOTQxmxE-147" value="&lt;span style=&quot;font-size: 14px;&quot;&gt;Laravel&lt;/span&gt;" style="rounded=1;whiteSpace=wrap;html=1;fillColor=#ffe6cc;strokeColor=#d79b00;" vertex="1" parent="WIyWlLk6GJQsqaUBKTNV-1">
          <mxGeometry x="240" y="740" width="140" height="40" as="geometry" />
        </mxCell>
        <mxCell id="R6oYE3YDxSzCmOTQxmxE-153" style="edgeStyle=orthogonalEdgeStyle;rounded=0;orthogonalLoop=1;jettySize=auto;html=1;exitX=0.5;exitY=1;exitDx=0;exitDy=0;entryX=0.45;entryY=0;entryDx=0;entryDy=0;entryPerimeter=0;" edge="1" parent="WIyWlLk6GJQsqaUBKTNV-1" source="R6oYE3YDxSzCmOTQxmxE-0" target="R6oYE3YDxSzCmOTQxmxE-4">
          <mxGeometry relative="1" as="geometry" />
        </mxCell>
      </root>
    </mxGraphModel>
  </diagram>
</mxfile>
